<svg width="166" height="62" viewBox="0 0 180 82" fill="none" xmlns="http://www.w3.org/2000/svg">
<path d="M72 36C72 55.8823 55.8823 72 36 72C16.1177 72 0 55.8823 0 36C0 16.1177 16.1177 0 36 0C55.8823 0 72 16.1177 72 36Z" fill="#E9EDF1"/>
<path d="M27.0165 27.5747V24.2826H9.58814V49.1019H27.0165V45.8099H14.1389V37.9026H26.5646V34.6105H14.1389V27.5747H27.0165Z" fill="#1E2F41"/>
<path d="M42.7365 24.2826V35.3851C41.4778 32.9968 39.3154 31.4153 36.6044 31.4153C32.4732 31.4476 29.5362 35.482 29.5362 40.42C29.5362 45.3903 32.4732 49.4569 36.6044 49.4569C39.3154 49.4569 41.4778 47.8755 42.7365 45.4548V49.1019H47.0614V24.2826H42.7365ZM38.3149 46.4876C35.9589 46.4876 33.861 44.0025 33.861 40.42C33.861 36.8375 35.9589 34.3846 38.3472 34.3846C40.7355 34.3846 42.7365 36.9666 42.7365 40.42C42.7365 43.8734 40.7355 46.4876 38.3149 46.4876Z" fill="#1E2F41"/>
<path d="M62.8213 31.7704V38.7417C62.8213 44.0025 60.9494 46.4876 58.787 46.4876C56.7214 46.4876 55.3659 44.7125 55.3659 40.4845V31.7704H51.041V41.13C51.041 47.1331 53.623 49.4569 57.3023 49.4569C59.5938 49.4569 61.6594 48.295 62.8213 45.2612V49.1019H67.1461V31.7704H62.8213Z" fill="#1E2F41"/>
<path d="M83.9661 48.9135C89.4206 48.9135 91.8089 44.976 92.4544 41.684L88.5491 40.9417C87.9037 43.8787 86.5158 45.9442 83.9339 45.9442C81.5455 45.9442 79.4154 43.2654 79.4154 39.8766C79.4154 36.52 81.5455 33.8412 83.9339 33.8412C86.5158 33.8412 87.9037 35.9068 88.5491 38.8115L92.4544 38.0692C91.8089 34.7772 89.4206 30.8719 83.9661 30.8719C78.5117 30.8719 75.0906 35.1645 75.0906 39.8766C75.0906 44.5887 78.5117 48.9135 83.9661 48.9135Z" fill="#1E2F41"/>
<path d="M111.578 43.2977V37.5205C111.578 33.3248 108.319 30.8719 103.832 30.8719C99.2494 30.8719 96.2801 33.3248 94.7954 37.4237L98.6361 38.3274C99.1203 36.4877 100.444 33.8735 103.413 33.8412C105.382 33.8089 106.931 35.0031 107.221 37.0041C99.7335 38.1338 95.1827 41.0062 95.1827 44.5887C95.1827 47.0093 96.7965 48.9135 99.9917 48.9135C103.574 48.9135 105.833 46.4929 107.253 43.1041V43.8787C107.253 45.2665 107.479 47.2675 107.834 48.5585H112.288C111.804 46.9125 111.578 45.4924 111.578 43.2977ZM101.896 45.9442C100.347 45.9442 99.5075 44.9437 99.5075 43.7173C99.5075 41.7485 101.96 39.9734 107.189 38.8438C106.834 42.2649 104.51 45.9442 101.896 45.9442Z" fill="#1E2F41"/>
<path d="M125.431 30.8719C123.043 30.8719 121.332 32.5825 120.267 35.0031V31.227H115.942V48.5585H120.267V41.5226C120.267 36.7782 121.816 33.8412 124.043 33.8412C125.528 33.8412 126.56 35.0031 127.077 36.4877L130.207 34.0994C129.175 31.9693 127.561 30.8719 125.431 30.8719Z" fill="#1E2F41"/>
<path d="M144.421 42.3295C143.743 44.7823 142.549 45.9442 141.032 45.9442C139.709 45.9442 138.87 45.0083 138.87 42.749V33.9058H146.487V31.227H138.87V27.0635H134.545V31.227H130.737V33.9058H134.545V42.6522C134.545 46.5575 136.804 48.9135 140.806 48.9135C144.066 48.9135 146.648 46.622 147.745 43.7496L144.421 42.3295Z" fill="#1E2F41"/>
<path d="M158.062 48.9135C161.871 48.9135 164.905 46.8157 164.905 43.685C164.905 40.3284 161.968 39.1988 158.32 38.3597C155.997 37.811 153.899 37.1655 153.899 35.7454C153.899 34.6804 154.867 33.8412 156.578 33.8412C158.385 33.8412 160.386 35.229 161.612 37.5851L164.84 36.165C163.323 33.1957 160.354 30.8719 156.416 30.8719C151.801 30.8719 149.574 33.2603 149.574 35.7777C149.574 38.392 151.672 39.7152 155.287 40.5866C158.32 41.2644 160.58 42.1035 160.58 43.7818C160.58 45.0405 159.515 45.9442 157.772 45.9442C155.383 45.9442 153.124 44.1691 151.995 41.0062L148.67 42.1358C149.832 46.0088 153.157 48.9135 158.062 48.9135Z" fill="#1E2F41"/>
<path d="M175.072 44.2377C175.072 46.6386 173.125 48.5849 170.725 48.5849C168.324 48.5849 166.377 46.6386 166.377 44.2377C166.377 41.8369 168.324 39.8906 170.725 39.8906C173.125 39.8906 175.072 41.8369 175.072 44.2377Z" fill="#DB8000"/>
</svg>
